#tb 0: 1/25
#media_type 0: video
#codec_id 0: rawvideo
#dimensions 0: 416x240
#sar 0: 0/1
0,          0,          0,        1,   299520, 0x7750edc7
0,          1,          1,        1,   299520, 0x97fb359b
0,          2,          2,        1,   299520, 0x89ac22bc
0,          3,          3,        1,   299520, 0x4f7e0ecc
0,          4,          4,        1,   299520, 0x7367f210
0,          5,          5,        1,   299520, 0x5c2274e3
0,          6,          6,        1,   299520, 0x11f26352
0,          7,          7,        1,   299520, 0x2c712fcc
0,          8,          8,        1,   299520, 0x44d700aa
0,          9,          9,        1,   299520, 0x7426fc80
0,         10,         10,        1,   299520, 0xd31d2fef
0,         11,         11,        1,   299520, 0xd7c8d389
0,         12,         12,        1,   299520, 0x2a8283e7
0,         13,         13,        1,   299520, 0x429f5e44
0,         14,         14,        1,   299520, 0x5c818504
0,         15,         15,        1,   299520, 0x1057090e
0,         16,         16,        1,   299520, 0x61404e77
0,         17,         17,        1,   299520, 0x8ce43ed3
0,         18,         18,        1,   299520, 0xf08e6c4d
0,         19,         19,        1,   299520, 0xb133a69f
0,         20,         20,        1,   299520, 0xd1be15a5
0,         21,         21,        1,   299520, 0xe875543f
0,         22,         22,        1,   299520, 0x0310f356
0,         23,         23,        1,   299520, 0x5ee0a7d9
0,         24,         24,        1,   299520, 0xacd092bb
0,         25,         25,        1,   299520, 0x878ef783
0,         26,         26,        1,   299520, 0xed9a2c06
0,         27,         27,        1,   299520, 0x0a4cb661
0,         28,         28,        1,   299520, 0x69aed89b
0,         29,         29,        1,   299520, 0xaa75d081
0,         30,         30,        1,   299520, 0x4c0402c6
0,         31,         31,        1,   299520, 0x7050b8f8
0,         32,         32,        1,   299520, 0x20cf8db8
0,         33,         33,        1,   299520, 0xa615d0cb
0,         34,         34,        1,   299520, 0x3170b77f
0,         35,         35,        1,   299520, 0x781f17a5
0,         36,         36,        1,   299520, 0x8767468b
0,         37,         37,        1,   299520, 0x8f291a78
0,         38,         38,        1,   299520, 0x87534588
0,         39,         39,        1,   299520, 0xb4861cee
0,         40,         40,        1,   299520, 0x38b6ba36
0,         41,         41,        1,   299520, 0x757ebda4
0,         42,         42,        1,   299520, 0xeccca3c0
0,         43,         43,        1,   299520, 0x8af415a3
0,         44,         44,        1,   299520, 0x37064dea
0,         45,         45,        1,   299520, 0xfea46d66
0,         46,         46,        1,   299520, 0x038d776f
0,         47,         47,        1,   299520, 0x2b905161
0,         48,         48,        1,   299520, 0x60230f44
0,         49,         49,        1,   299520, 0x828f8991
0,         50,         50,        1,   299520, 0x7c5ded06
0,         51,         51,        1,   299520, 0xef38fd3a
0,         52,         52,        1,   299520, 0x4c08ea42
0,         53,         53,        1,   299520, 0x66dd9974
0,         54,         54,        1,   299520, 0x4af1e690
0,         55,         55,        1,   299520, 0x3fce05be
0,         56,         56,        1,   299520, 0x07ccca7a
0,         57,         57,        1,   299520, 0x1113a830
0,         58,         58,        1,   299520, 0xe095faa8
0,         59,         59,        1,   299520, 0x01da87b4
0,         60,         60,        1,   299520, 0xecd3ea56
0,         61,         61,        1,   299520, 0x8b80d26b
0,         62,         62,        1,   299520, 0x625b4844
0,         63,         63,        1,   299520, 0x1f96bc19
0,         64,         64,        1,   299520, 0x8de15c59
0,         65,         65,        1,   299520, 0x8de15c59
0,         66,         66,        1,   299520, 0xe0f88d0d
0,         67,         67,        1,   299520, 0xe0f88d0d
0,         68,         68,        1,   299520, 0xf951adca
0,         69,         69,        1,   299520, 0x3159e1a0
0,         70,         70,        1,   299520, 0xa3b9764d
0,         71,         71,        1,   299520, 0xa294c4db
0,         72,         72,        1,   299520, 0x9ddd0aa8
0,         73,         73,        1,   299520, 0x47702302
0,         74,         74,        1,   299520, 0xebd66219
0,         75,         75,        1,   299520, 0x9daa6030
0,         76,         76,        1,   299520, 0x74aad521
0,         77,         77,        1,   299520, 0x74aad521
0,         78,         78,        1,   299520, 0x6be83092
0,         79,         79,        1,   299520, 0x87e19ded
0,         80,         80,        1,   299520, 0x41f4552c
0,         81,         81,        1,   299520, 0xdbbd4643
0,         82,         82,        1,   299520, 0x85505e9d
0,         83,         83,        1,   299520, 0x33692949
0,         84,         84,        1,   299520, 0x2d3ded88
0,         85,         85,        1,   299520, 0x211ed3d4
0,         86,         86,        1,   299520, 0x9dd3c6b8
0,         87,         87,        1,   299520, 0x96016144
0,         88,         88,        1,   299520, 0xdb86dd3a
0,         89,         89,        1,   299520, 0x2a07d782
0,         90,         90,        1,   299520, 0x4baeac21
0,         91,         91,        1,   299520, 0x9426dbd3
0,         92,         92,        1,   299520, 0x69203a74
0,         93,         93,        1,   299520, 0x69203a74
0,         94,         94,        1,   299520, 0xcb3e55c2
0,         95,         95,        1,   299520, 0xbbc8dea2
0,         96,         96,        1,   299520, 0x19b27f0d
0,         97,         97,        1,   299520, 0x0edb8988
0,         98,         98,        1,   299520, 0x0b3a8feb
0,         99,         99,        1,   299520, 0xa2a3a4b4
0,        100,        100,        1,   299520, 0xeb26e563
0,        101,        101,        1,   299520, 0xd3fb037e
0,        102,        102,        1,   299520, 0x106089ed
0,        103,        103,        1,   299520, 0x606fb6ed
0,        104,        104,        1,   299520, 0x6e14a326
0,        105,        105,        1,   299520, 0x875cfdab
0,        106,        106,        1,   299520, 0xa1f316f9
0,        107,        107,        1,   299520, 0x444fff4a
0,        108,        108,        1,   299520, 0x9c7b6c8a
0,        109,        109,        1,   299520, 0xffd0ffa3
0,        110,        110,        1,   299520, 0x278941d9
0,        111,        111,        1,   299520, 0x05a1552f
0,        112,        112,        1,   299520, 0x5b564fbc
0,        113,        113,        1,   299520, 0x25ffb96d
0,        114,        114,        1,   299520, 0x6e389daf
0,        115,        115,        1,   299520, 0x1b48132b
0,        116,        116,        1,   299520, 0xcc9b5df0
0,        117,        117,        1,   299520, 0xe8895d00
0,        118,        118,        1,   299520, 0x35ea30df
0,        119,        119,        1,   299520, 0x8dcf07b4
0,        120,        120,        1,   299520, 0x1cf3780e
0,        121,        121,        1,   299520, 0x5f1a6062
0,        122,        122,        1,   299520, 0xe2ac4ed0
0,        123,        123,        1,   299520, 0x07fe56aa
0,        124,        124,        1,   299520, 0xe892eab8
0,        125,        125,        1,   299520, 0xdeda11d7
0,        126,        126,        1,   299520, 0xc8134b3f
0,        127,        127,        1,   299520, 0x8baa039a
0,        128,        128,        1,   299520, 0x8ec71908
0,        129,        129,        1,   299520, 0x8ec71908
0,        130,        130,        1,   299520, 0x73ae1f71
0,        131,        131,        1,   299520, 0xb615e210
0,        132,        132,        1,   299520, 0x7afe31e6
0,        133,        133,        1,   299520, 0x38362f5b
0,        134,        134,        1,   299520, 0xbb7c2fad
0,        135,        135,        1,   299520, 0xe08720c1
0,        136,        136,        1,   299520, 0xb1118297
0,        137,        137,        1,   299520, 0x33740a04
0,        138,        138,        1,   299520, 0x567c1e9c
0,        139,        139,        1,   299520, 0x3911af2a
0,        140,        140,        1,   299520, 0xec64ec95
0,        141,        141,        1,   299520, 0x83128903
0,        142,        142,        1,   299520, 0xd11a7835
0,        143,        143,        1,   299520, 0xd96bc851
0,        144,        144,        1,   299520, 0x726696ba
0,        145,        145,        1,   299520, 0x35c6b8e4
0,        146,        146,        1,   299520, 0xd238e317
0,        147,        147,        1,   299520, 0xf28c861b
0,        148,        148,        1,   299520, 0x5d49132b
0,        149,        149,        1,   299520, 0xcbadef81
0,        150,        150,        1,   299520, 0x1fbcfda6
0,        151,        151,        1,   299520, 0xa18a07b6
0,        152,        152,        1,   299520, 0xa1631bb5
0,        153,        153,        1,   299520, 0xcb80f2d6
0,        154,        154,        1,   299520, 0x88b23aae
0,        155,        155,        1,   299520, 0xbaa50ebe
0,        156,        156,        1,   299520, 0x1bc7151d
0,        157,        157,        1,   299520, 0x7254b9a4
0,        158,        158,        1,   299520, 0xd66682cb
0,        159,        159,        1,   299520, 0x846c055b
0,        160,        160,        1,   299520, 0x4d0ac94f
0,        161,        161,        1,   299520, 0xf9a01b25
0,        162,        162,        1,   299520, 0x193dc288
0,        163,        163,        1,   299520, 0xf43fb875
0,        164,        164,        1,   299520, 0xf4fd6452
0,        165,        165,        1,   299520, 0xafcdfb2a
0,        166,        166,        1,   299520, 0x5c342ad7
0,        167,        167,        1,   299520, 0xfe7943ec
0,        168,        168,        1,   299520, 0xc7e8a82d
0,        169,        169,        1,   299520, 0x99b1ed3f
0,        170,        170,        1,   299520, 0x4decbdb8
0,        171,        171,        1,   299520, 0x3cb0ccc2
0,        172,        172,        1,   299520, 0x3b210547
0,        173,        173,        1,   299520, 0xb8dee8bf
0,        174,        174,        1,   299520, 0x75124e85
0,        175,        175,        1,   299520, 0xbd390ba5
0,        176,        176,        1,   299520, 0x5030302d
0,        177,        177,        1,   299520, 0x38a4c990
0,        178,        178,        1,   299520, 0x6d091561
0,        179,        179,        1,   299520, 0x4598d16a
0,        180,        180,        1,   299520, 0xa60c8a7c
0,        181,        181,        1,   299520, 0x1987b4ab
0,        182,        182,        1,   299520, 0x3fc66893
0,        183,        183,        1,   299520, 0x3fc66893
0,        184,        184,        1,   299520, 0x84694e9d
0,        185,        185,        1,   299520, 0x84694e9d
0,        186,        186,        1,   299520, 0xa736933c
0,        187,        187,        1,   299520, 0x994e35f8
0,        188,        188,        1,   299520, 0x80999aab
0,        189,        189,        1,   299520, 0x5cf09e35
0,        190,        190,        1,   299520, 0x8678f05d
0,        191,        191,        1,   299520, 0xe4ca13df
0,        192,        192,        1,   299520, 0x0ab1fc5b
0,        193,        193,        1,   299520, 0x949977a6
0,        194,        194,        1,   299520, 0x0ab1fc5b
0,        195,        195,        1,   299520, 0xb5677d4e
0,        196,        196,        1,   299520, 0xefd5e34c
0,        197,        197,        1,   299520, 0xfb5875da
0,        198,        198,        1,   299520, 0x3520759c
0,        199,        199,        1,   299520, 0xc30dbfb6
0,        200,        200,        1,   299520, 0xcedb09c4
0,        201,        201,        1,   299520, 0xced1dc4a
0,        202,        202,        1,   299520, 0xcf7d3425
0,        203,        203,        1,   299520, 0xede92113
0,        204,        204,        1,   299520, 0x6ca1204e
0,        205,        205,        1,   299520, 0x04a46f67
0,        206,        206,        1,   299520, 0x1bd8fe03
0,        207,        207,        1,   299520, 0x11dab44d
0,        208,        208,        1,   299520, 0xc0d1109c
0,        209,        209,        1,   299520, 0x9e19c78f
0,        210,        210,        1,   299520, 0xcffab4cb
0,        211,        211,        1,   299520, 0x07582785
0,        212,        212,        1,   299520, 0x43182694
0,        213,        213,        1,   299520, 0x76f8c058
0,        214,        214,        1,   299520, 0x895cbd03
0,        215,        215,        1,   299520, 0xec9f9014
0,        216,        216,        1,   299520, 0xd9cc6c00
0,        217,        217,        1,   299520, 0xf15c775e
0,        218,        218,        1,   299520, 0xe4b60e06
0,        219,        219,        1,   299520, 0x5d825ea9
0,        220,        220,        1,   299520, 0xd39d2f4a
0,        221,        221,        1,   299520, 0x9b8dfedc
0,        222,        222,        1,   299520, 0xc851ce8f
0,        223,        223,        1,   299520, 0xdc399f09
0,        224,        224,        1,   299520, 0xbce817c6
0,        225,        225,        1,   299520, 0x48cc865e
0,        226,        226,        1,   299520, 0xf875c060
0,        227,        227,        1,   299520, 0xb3b4b0a3
0,        228,        228,        1,   299520, 0xce683731
0,        229,        229,        1,   299520, 0xeddd5126
0,        230,        230,        1,   299520, 0x2ecf505e
0,        231,        231,        1,   299520, 0x631c4af2
0,        232,        232,        1,   299520, 0x1cc7742e
0,        233,        233,        1,   299520, 0xc5124083
0,        234,        234,        1,   299520, 0x4a851970
0,        235,        235,        1,   299520, 0xbfad7925
0,        236,        236,        1,   299520, 0x92058c0e
0,        237,        237,        1,   299520, 0x7ecd39b5
0,        238,        238,        1,   299520, 0x58887a74
0,        239,        239,        1,   299520, 0xb0825813
0,        240,        240,        1,   299520, 0xbc763455
0,        241,        241,        1,   299520, 0x3b259a45
0,        242,        242,        1,   299520, 0xb200177c
0,        243,        243,        1,   299520, 0x1cb15851
0,        244,        244,        1,   299520, 0xd73a92cd
0,        245,        245,        1,   299520, 0xe43419cf
0,        246,        246,        1,   299520, 0xf0facff1
0,        247,        247,        1,   299520, 0xc931e638
0,        248,        248,        1,   299520, 0xc33e31e7
0,        249,        249,        1,   299520, 0x03b43a26
0,        250,        250,        1,   299520, 0x85d64d60
0,        251,        251,        1,   299520, 0x86a8848c
0,        252,        252,        1,   299520, 0x5f09afaf
0,        253,        253,        1,   299520, 0xb7e92098
0,        254,        254,        1,   299520, 0xf1957fad
0,        255,        255,        1,   299520, 0xf29dc4b0
